<svg width="40" height="40" viewBox="0 0 40 40" fill="none" xmlns="http://www.w3.org/2000/svg">
<circle cx="20" cy="20" r="20" fill="white"/>
<path d="M21.83 27C21.6806 27.0005 21.533 26.9675 21.398 26.9035C21.263 26.8395 21.1441 26.746 21.05 26.63L16.22 20.63C16.0729 20.4511 15.9925 20.2266 15.9925 19.995C15.9925 19.7634 16.0729 19.5389 16.22 19.36L21.22 13.36C21.3897 13.1558 21.6336 13.0274 21.8981 13.003C22.1625 12.9786 22.4258 13.0603 22.63 13.23C22.8342 13.3997 22.9626 13.6437 22.987 13.9081C23.0114 14.1725 22.9297 14.4358 22.76 14.64L18.29 20L22.61 25.36C22.7323 25.5068 22.8099 25.6855 22.8338 25.8751C22.8577 26.0646 22.8268 26.257 22.7447 26.4296C22.6627 26.6021 22.5329 26.7475 22.3708 26.8486C22.2087 26.9497 22.021 27.0022 21.83 27Z" fill="black"/>
</svg>
