<svg width="13" height="15" viewBox="0 0 13 15" fill="none" xmlns="http://www.w3.org/2000/svg">
<path d="M10.8612 10.9581L10.0204 11.7897C9.40062 12.3974 8.59666 13.1794 7.60783 14.1357C7.31063 14.423 6.9134 14.5837 6.5 14.5837C6.08659 14.5837 5.68936 14.423 5.39216 14.1357L2.91937 11.7302C2.60841 11.4249 2.34845 11.1678 2.13879 10.9581C1.2763 10.0955 0.688948 8.9966 0.451011 7.80024C0.213074 6.60388 0.335236 5.36383 0.80205 4.2369C1.26886 3.10997 2.05936 2.14678 3.07359 1.46911C4.08781 0.791437 5.28021 0.429733 6.5 0.429733C7.71979 0.429733 8.91218 0.791437 9.92641 1.46911C10.9406 2.14678 11.7311 3.10997 12.1979 4.2369C12.6648 5.36383 12.7869 6.60388 12.549 7.80024C12.311 8.9966 11.7237 10.0955 10.8612 10.9581ZM8.27083 6.79167C8.27083 6.32202 8.08426 5.8716 7.75216 5.5395C7.42007 5.20741 6.96965 5.02084 6.5 5.02084C6.03034 5.02084 5.57992 5.20741 5.24783 5.5395C4.91573 5.8716 4.72916 6.32202 4.72916 6.79167C4.72916 7.26132 4.91573 7.71174 5.24783 8.04384C5.57992 8.37593 6.03034 8.5625 6.5 8.5625C6.96965 8.5625 7.42007 8.37593 7.75216 8.04384C8.08426 7.71174 8.27083 7.26132 8.27083 6.79167Z" fill="#056EA1"/>
</svg>
